<?xml version="1.0" encoding="UTF-8" standalone="no"?>
<!DOCTYPE svg PUBLIC "-//W3C//DTD SVG 1.1//EN" "http://www.w3.org/Graphics/SVG/1.1/DTD/svg11.dtd">
<!-- Created with Vectornator (http://vectornator.io/) -->
<svg height="100%" stroke-miterlimit="10" style="fill-rule:nonzero;clip-rule:evenodd;stroke-linecap:round;stroke-linejoin:round;" version="1.1" viewBox="0 0 1431.56 965.517" width="100%" xml:space="preserve" xmlns="http://www.w3.org/2000/svg" xmlns:vectornator="http://vectornator.io" xmlns:xlink="http://www.w3.org/1999/xlink">
<defs/>
<g id="Untitled" vectornator:layerName="Untitled" visibility="hidden">
<path d="M1008 963.997L998 963.997L990 961.997L983.003 958L978 953.997L973.003 948L969.003 942L967 934.997L964.003 927L963.003 918L962.003 909L962.003 899L962.003 889L963.003 880L964.003 871L966.003 863L967.003 854L969.003 846L971.003 838L973.003 830L975.003 822L977.003 814L980.003 807L982.003 799L985 791.003L987.003 784L990.003 777L993 769.003L995.003 762L998.003 755L1001 748L1004 741L1007 734L1010 727L1013 720L1016 713L1019 706L1023 699.003L1026 692.003L1029 686L1032 679L1036 672.003L1039 666L1043 659.003L1046 653L1049 646L1053 640L1056 633L1060 627L1064 620.003L1067 614L1071 607.003L1074 601L1078 595L1082 588.003L1085 582L1089 576L1093 570L1097 563.003L1101 557.003L1104 551L1108 545L1112 539L1116 533L1120 526.003L1124 520.003L1128 514.003L1132 508.003L1136 502.003L1140 496.003L1144 490.003L1148 484.003L1152 478.003L1156 472.003L1160 466.003L1164 460.003L1168 455L1172 453L1172 463L1171 472L1170 481L1168 489L1167 498L1165 506L1163 514L1160 521.997L1158 529L1154 535L1150 541L1146 547L1142 553L1138 559L1134 565.997L1130 571.997L1127 578L1123 584L1119 590L1115 596.997L1112 603L1108 609L1104 615.997L1101 622L1097 628L1093 634.997L1090 641L1086 647.997L1083 654L1079 660L1076 667L1072 673.997L1069 680L1065 686.997L1062 693L1059 700L1056 707L1052 713.997L1049 720L1046 727L1043 734L1040 741L1037 748L1034 755L1031 762L1028 769L1025 776.997L1022 783.997L1020 791L1017 798.997L1015 806L1012 813.997L1010 821L1008 829L1006 837L1003 844.997L1002 853L999.997 861L998 869.997L996.997 878L995.997 887L994.997 896L994.997 906L995.997 915L997.997 923L1001 930L1009 929.003L1015 925.003L1021 921.003L1026 917L1031 912L1036 907L1041 901.003L1045 896L1049 890L1054 884.003L1057 878L1061 872L1065 866L1069 859.003L1072 853L1076 846.003L1079 840L1082 833L1085 826L1088 819L1092 812.003L1095 805.003L1097 798L1100 791L1103 784L1106 776.003L1108 769L1111 762L1113 754L1116 747L1118 739L1121 731.003L1123 724L1125 716L1128 708.003L1130 701L1132 693L1134 685L1136 677L1138 669L1140 661L1142 652.003L1143 644L1145 636L1147 628L1149 619.003L1150 611L1152 603L1153 594L1155 586L1156 577L1158 568.003L1159 560L1161 551.003L1162 543L1163 534L1165 526L1167 518L1169 510L1171 502L1173 494L1174 485L1175 476L1176 467L1177 458L1178 449L1179 440L1180 431L1182 422.003L1183 414L1184 405L1185 396L1187 388L1188 379L1189 370L1190 361L1191 352L1192 343L1193 334L1194 325L1194 315L1195 306L1195 296L1196 287L1196 277L1196 267L1195 258L1195 248L1194 239L1193 230L1192 221L1191 212L1190 203L1188 195L1186 187L1184 179.997L1181 172.997L1177 166L1174 159.997L1169 154L1164 149L1158 145L1151 142.997L1143 140.997L1133 140.997L1124 141L1115 142.997L1108 145L1100 147.997L1093 150.997L1086 153.997L1080 157L1073 160.997L1067 164L1061 168L1054 171.997L1049 176L1043 180L1037 184L1031 188.997L1026 193L1020 197.997L1015 202L1009 206.997L1004 211L998.997 216L993 220.997L988 225.997L983 230.997L977.997 235L972.997 240L967.997 245L962.997 250L957.997 255L952.997 260L948 265.997L943 270.997L938 275.997L933.997 281L928.997 286L923.997 291L919 296.997L914.997 302L910 307.997L905 312.997L900.997 318L896 323.997L891.997 329L887 334.997L882.997 340L878 345.997L874 351.997L869.997 357L865 362.997L860.997 368L856.997 374L852.997 380L848 385.997L844 391.997L839.997 397L835.997 403L831.997 409L827.997 415L823.997 421L821.003 414L821.003 404L821.003 394L821.003 384L821.003 374L822.003 365L827 359.003L831.003 354L835.003 348L839.003 342L844 336.003L848.003 331L853 325.003L857.003 320L861.003 314L866.003 309L871 303.003L875.003 298L880 292.003L884.003 287L889 281.003L894 276.003L898.003 271L903.003 266L908 260.003L912.003 255L917.003 250L922.003 245L927 239.003L932 234.003L937 229.003L942 224.003L947 219.003L952 214.003L957 209.003L962.003 205L967.003 200L973 195.003L978 190.003L983.003 186L989 181.003L994 176.003L999.003 172L1005 167.003L1011 163.003L1016 159L1022 154.003L1028 150.003L1034 146.003L1040 142.003L1046 138.003L1052 134.003L1058 131L1065 127.003L1072 124.003L1079 121.003L1086 118.003L1093 115.003L1100 113L1108 111L1117 109.003L1125 108L1135 107.003L1145 107.003L1153 109.003L1161 111.003L1169 114L1175 117.003L1182 121L1187 125.003L1192 130.003L1197 136L1201 141.003L1205 148L1209 154L1212 161L1214 168.003L1217 176L1219 184L1221 192L1223 200L1224 209L1226 217L1227 226L1227 236L1228 245L1229 254L1229 264L1229 274L1229 284L1229 294L1228 303L1228 313L1227 322L1226 331.997L1226 341L1225 350L1224 359L1223 368L1221 376L1220 385L1219 394L1217 402L1216 411L1215 420L1214 429L1213 438L1211 446L1210 455L1208 463L1207 472L1206 481L1204 489L1203 498L1202 507L1200 515L1199 524L1197 532L1196 541L1195 550L1193 558L1192 567L1190 575L1189 584L1187 592L1186 601L1184 609L1183 618L1181 626L1179 634L1178 643L1176 651L1174 659L1172 667L1170 675L1168 683.997L1166 691L1164 699L1162 707L1160 715L1158 723L1156 731L1153 738L1151 746L1148 753.997L1146 761L1143 768.997L1141 776L1138 783.997L1136 791L1133 798L1130 805L1127 812.997L1124 819.997L1121 826.997L1118 833.997L1115 840.997L1112 847L1109 854L1105 860.997L1102 867L1098 873.997L1095 880L1091 886.997L1087 892.997L1083 898.997L1079 904.997L1075 910.997L1071 916L1067 922L1062 927L1057 932.997L1052 937.997L1047 942.997L1042 947L1036 951L1030 955L1023 958.997L1016 961.997L1008 963.997Z" fill="none" opacity="1" stroke="#1a1a29" stroke-linecap="butt" stroke-linejoin="miter" stroke-width="3" vectornator:layerName="path"/>
<path d="M644 945.997L634 945.997L626 943.997L619 940.997L613 936.997L608 931.997L604 925.997L600.003 919L598 911.997L595.003 904L594.003 895L593.003 886L593.003 876L593.003 866L594 856.003L594.003 847L595.003 838L597.003 830L598.003 821L600.003 813L602 804.003L603.003 796L605.003 788L608 780.003L610 772.003L612.003 765L614.003 757L617.003 750L619.003 742L622 734.003L624.003 727L627.003 720L630.003 713L633 705.003L635.003 698L638.003 691L641.003 684L644.003 677L647.003 670L650.003 663L653.003 656L656.003 649L660 642.003L663.003 636L666.003 629L669.003 622L673 615.003L676.003 609L679.003 602L683 595.003L686.003 589L690 582.003L693.003 576L696.003 569L700.003 563L704 556.003L707.003 550L711 543.003L714.003 537L718 530.003L721.003 524L725.003 518L729 511.003L732.003 505L736.003 499L740 492.003L743.003 486L747.003 480L751.003 474L755 467.003L759 461.003L762.003 455L766.003 449L770.003 443L774.003 437L778.997 434L778.997 444L778.997 454L778.997 464L778.997 474L777.997 483L776.997 492L773.997 499L770 505.997L766.997 512L762.997 518L759 524.997L755.997 531L751.997 537L748 543.997L744.997 550L741 556.997L737.997 563L733.997 569L730.997 576L726.997 582L723 588.997L719.997 595L716.997 602L713 608.997L709.997 615L706 621.997L702.997 628L699.997 635L696.997 642L693 648.997L689.997 655L686.997 662L683.997 669L680.997 676L677.997 683L674.997 690L671.997 697L668.997 704L665.997 711L662.997 718L660 725.997L657.997 733L654.997 740L652 747.997L649.997 755L647 762.997L644.997 770L642.997 778L640 785.997L638 793.997L635.997 801L634 809.997L632.997 818L630.997 826L629.997 835L627.997 843L626.997 852L626.997 862L625.997 871L625.997 881L626.997 890L627.997 899L630.997 906L634.997 912L643 911.003L650 908.003L656 904.003L661.003 900L666.003 895L671.003 890L676 884.003L680.003 879L685 873.003L689 867.003L693 861.003L696.003 855L700.003 849L704 842.003L707.003 836L710.003 829L714 822.003L717 815.003L720 808.003L723 801.003L725.003 794L728.003 787L731 779.003L733.003 772L736 764.003L738.003 757L740.003 749L743 741.003L745.003 734L747.003 726L749.003 718L751.003 710L753.003 702L755.003 694L757 685.003L759 677.003L760.003 669L762.003 661L763.003 652L765.003 644L767 635.003L768.003 627L769.003 618L771 609.003L772.003 601L773.003 592L774.003 583L775.003 574L776.003 565L777.003 556L778.003 547L779.003 538L780.003 529L781.003 520L781.003 510L782.003 501L783.003 492L783.003 482L784.003 473L784.003 463L784.003 453L784.003 443L784.003 433L784.003 423L784.003 413L784.003 403L784.003 393L783.003 384L783.003 374L782.003 365L781.003 356L781.003 346L780.003 337L779.003 328L778.003 319L777.003 310L776.003 301L774.003 293L773.003 284L771.003 276L770.003 267L768.003 259L766.003 251L764.003 243L761.003 236L759.003 228L756.003 221L753.003 214L750.003 207L747.003 200L743.003 194L740 187.997L736 181.997L731.003 176L726.003 171L721.003 166L716 161.997L710 157.997L703 154.997L695.003 152L687 150.997L678 151.997L669.997 153L662 155.997L655 158.997L648.997 162L642 165.997L636 169.997L630 173.997L624.997 178L619 182.997L613.997 187L608 191.997L603 196.997L597.997 201L592.997 206L587.997 211L582.997 216L577.997 221L572.997 226L567.997 231L562.997 236L557.997 241L553 246.997L548 251.997L543.997 257L538.997 262L534 267.997L529.997 273L524.997 278L520 283.997L515.997 289L511 294.997L506.997 300L502 305.997L497.997 311L493 316.997L488.997 322L484 327.997L479.997 333L475 338.997L470.997 344L466.997 350L462 355.997L457.997 361L453.997 367L449 372.997L444.997 378L440.997 384L436 389.997L432 395.997L427.997 401L423.997 407L419 412.997L415 418.997L410.997 424L406.997 430L402.997 436L398 441.997L394.003 441L395.003 432L395.003 422L395.003 412L395.003 402L395.003 392L399 385.003L403 379.003L407.003 374L411.003 368L416 362.003L420.003 357L424.003 351L429 345.003L433 339.003L437.003 334L442 328.003L446.003 323L450.003 317L455 311.003L459.003 306L464 300.003L468.003 295L473 289.003L477.003 284L482 278.003L486.003 273L491 267.003L495.003 262L500.003 257L505 251.003L509.003 246L514 240.003L519 235.003L523.003 230L528.003 225L533.003 220L538 214.003L543 209.003L548 204.003L553 199.003L558 194.003L563 189.003L568 184.003L573 179.003L578.003 175L583.003 170L589 165.003L594.003 161L600 156.003L605.003 152L611 147.003L617 143.003L623 139.003L629 135.003L635.003 132L642 128.003L649 125.003L656.003 123L664 120.003L673 119.003L682 118.003L692 118.003L701 119.003L708.997 122L716 124.003L723 127.003L729 131.003L735 135.003L741 139.003L746 144.003L751 149.003L756 154.003L760.997 160L764.997 166L768.997 172L772 178.003L775.997 185L779 191.003L782 198.003L785.997 205L788 212.003L790.997 220L793 227.003L795.997 235L797.997 243L799.997 251L801.997 259L803.997 267L804.997 276L806.997 284L807.997 293L808.997 302L810 310.003L811 319.003L812 328.003L812.997 338L813.997 347L814.997 356L815.997 365L815.997 375L815.997 385L815.997 395L815.997 405L816.997 414L816.997 424L816.997 434L817.997 443L817 452.997L816.997 462L816.997 472L816 481.997L815.997 491L814.997 500L814.997 510L813.997 519L812.997 528L812 537.997L811.997 547L810.997 556L809.997 565L808.997 574L807.997 583L806 591.997L804.997 600L803.997 609L802.997 618L801.997 627L799.997 635L798.997 644L796.997 652L795.997 661L793.997 669L791.997 677L790.997 686L788.997 694L786.997 702L784.997 710L782.997 718L780.997 726L778.997 734L776.997 742L774.997 750L772 757.997L769.997 765L767.997 773L764.997 780L762.997 788L759.997 795L757 802.997L754.997 810L751.997 817L748.997 824L745.997 831L742.997 838L739.997 845L736 851.997L732.997 858L728.997 864L725 870.997L721.997 877L717.997 883L713.997 889L709 894.997L705 900.997L700.997 906L695.997 911L691 916.997L686 921.997L680.997 926L675 930.997L669 934.997L663 938.997L656 941.997L649 944.997L644 945.997Z" fill="none" opacity="1" stroke="#1a1a29" stroke-linecap="butt" stroke-linejoin="miter" stroke-width="3" vectornator:layerName="path"/>
<path d="M222 963.997L213 962.997L204.003 961L197.003 958L191 954.997L185.003 950L181 944.997L176.003 939L173 932.997L170 925.997L167.003 918L165.003 910L163.003 902L162.003 893L161.003 884L160.003 875L160.003 865L161.003 856L162 846.003L163.003 838L164.003 829L166 820.003L167.003 812L169.003 804L171.003 796L173.003 788L175.003 780L178.003 773L180.003 765L183 757.003L185.003 750L188.003 743L191.003 736L194 728.003L196.003 721L199.003 714L202.003 707L205.003 700L209 693.003L212 686.003L215.003 680L218.003 673L221.003 666L225 659.003L228.003 653L231.003 646L235.003 640L238.003 633L242.003 627L245.003 620L249.003 614L253 607.003L256.003 601L260 594.003L263.003 588L267.003 582L271 575.003L274.003 569L278.003 563L282.003 557L286 550.003L290 544.003L293.003 538L297.003 532L301.003 526L305.003 520L309.003 514L313.003 508L317.003 502L321.003 496L325.003 490L329.003 484L333.003 478L337.003 472L341.003 466L345.003 460L349.003 454L351.997 461L351.997 471L350.997 480L350.997 490L349.997 499L348.997 508L346.997 516L342.997 522L338.997 528L335 534.997L331 540.997L327 546.997L323 552.997L319.997 559L315.997 565L311.997 571L308 577.997L304 583.997L300.997 590L296.997 596L293 602.997L289.997 609L285.997 615L282 621.997L278.997 628L275 634.997L271.997 641L267.997 647L264.997 654L261 660.997L257.997 667L254 673.997L251 680.997L247.997 687L244.997 694L241.997 701L238 707.997L235 714.997L232 721.997L229 728.997L226 735.997L223 742.997L220.997 750L217.997 757L215 764.997L212.997 772L210 779.997L207.997 787L205.997 795L203.997 803L201 810.997L199.997 819L197.997 827L196.997 836L194.997 844L193.997 853L193.997 863L193.997 873L193.997 883L194.997 892L196.997 900L198.997 908L200.997 916L204.997 922L209 927.003L216 930.003L225 929.003L232 926.003L237.003 922L243 917.003L248 912.003L252.003 907L257 901.003L261 895.003L265 889.003L268.003 883L272.003 877L275.003 870L279 863.003L282.003 857L285 849.003L288 842.003L291 835.003L293.003 828L296.003 821L299 813.003L301.003 806L304 798.003L306.003 791L308.003 783L311 775.003L313.003 768L315.003 760L317.003 752L319.003 744L321.003 736L323.003 728L325.003 720L327.003 712L329.003 704L331.003 696L333.003 688L335 679.003L336.003 671L338.003 663L339.003 654L341.003 646L342.003 637L344 628.003L345.003 620L346.003 611L347.003 602L348.003 593L349.003 584L350.003 575L351.003 566L352.003 557L353.003 548L353.003 538L354.003 529L355.003 520L355.003 510L355.003 500L356.003 491L357 481.003L357.003 472L357.003 462L357.003 452L357.003 442L357.003 432L356.003 423L356.003 413L356.003 403L356 393.997L355.003 384L355.003 374L355.003 364L354.003 355L354.003 345L354.003 335L353.003 326L353.003 316L352.003 307L352.003 297L351.003 288L351.003 278L350.003 269L350.003 259L349.003 250L349 240.997L348.003 231L347.003 222L347 212.997L346.003 203L345.003 194L345.003 184L345.003 174L345.003 164L345.003 154L345.003 144L345.003 134L348.003 127L354 122.003L361.997 121L368.997 124L373 129.003L374.997 138L374.997 148L375.997 157L376.997 166L377 175.003L377.997 185L378.997 194L378.997 204L379.997 213L380.997 222L380.997 232L381.997 241L382.997 250L382.997 260L383.997 269L383.997 279L384.997 288L384.997 298L385.997 307L385.997 317L386.997 326L386.997 336L387 345.003L387.997 355L387.997 365L387.997 375L388.997 384L388.997 394L388.997 404L389.997 413L389.997 423L389.997 433L388.997 442L389.997 451L389.997 461L389 470.997L388.997 480L388.997 490L388.997 500L387.997 509L387.997 519L387.997 529L386.997 538L385.997 547L385 556.997L384.997 566L383.997 575L382.997 584L381.997 593L380.997 602L379.997 611L378 619.997L376.997 628L375.997 637L374 645.997L372.997 654L371 662.997L369.997 671L367.997 679L366.997 688L364.997 696L362.997 704L360.997 712L359 720.997L357 728.997L355 736.997L353.997 745L351 752.997L348.997 760L346.997 768L344.997 776L342.997 784L340 791.997L337.997 799L335.997 807L332.997 814L330.997 822L327.997 829L325 836.997L322.997 844L319.997 851L316.997 858L313.997 865L310.997 872L307.997 879L304 885.997L300.997 892L297 898.997L293.997 905L289.997 911L285.997 917L281.997 923L277 928.997L272.997 934L267.997 939L262.997 944L257 948.997L251 952.997L245 956.997L238 959.997L230 961.997L222 963.997Z" fill="none" opacity="1" stroke="#1a1a29" stroke-linecap="butt" stroke-linejoin="miter" stroke-width="3" vectornator:layerName="path"/>
<path d="M1219 439.997L1218 432L1220 424L1221 415L1222 406L1223 397L1225 388.003L1226 380L1229 372.003L1233 366.003L1237 361L1242 355.003L1246 350L1250 344L1255 338.003L1259 333L1264 327.003L1268 322L1273 316.003L1277 311L1282 305.003L1286 300L1291 295L1296 289.003L1300 284L1305 278.003L1310 273.003L1314 268L1319 263L1324 257.003L1328 252L1333 247L1338 242L1343 236.003L1348 231.003L1352 226L1357 221L1362 216L1367 211L1372 206L1377 201L1382 196L1387 190.003L1392 185.003L1397 180.003L1402 175.003L1408 172L1417 171L1424 174L1428 179.003L1430 188L1427 195.997L1423 201L1418 206L1413 211L1408 216L1403 221L1398 226L1393 231.997L1388 236.997L1383 241.997L1378 246.997L1374 252L1369 257L1364 262L1359 267.997L1354 272.997L1350 278L1345 283L1340 288.997L1335 293.997L1331 299L1326 304.997L1321 309.997L1317 315L1312 320.997L1308 326L1303 331.997L1299 337L1294 342.997L1290 348L1285 353.997L1281 359L1276 364.997L1272 370L1267 375.997L1263 381.997L1259 387L1254 392.997L1250 398L1246 404L1241 409.997L1237 415.997L1233 421L1229 427L1224 432.997L1220 438.997L1219 439.997Z" fill="none" opacity="1" stroke="#1a1a29" stroke-linecap="butt" stroke-linejoin="miter" stroke-width="3" vectornator:layerName="path"/>
</g>
<g id="Layer-1-copy" vectornator:layerName="Layer 1 copy" visibility="hidden">
<path d="M226.537 84C226.537 84 274.536 232.55 266.803 473C259.069 713.45 159.253 888 97.441 888C35.6291 888 41.569 678.627 178.838 473C316.107 267.373 445.853 84 568.334 84C690.814 84 703.943 240.472 692.144 473C680.345 705.528 578.323 888 513.234 888C448.145 888 442.583 746.684 602.743 473C762.904 199.316 903.286 84 1021.24 84C1139.2 84 1139.76 255.767 1119.7 473C1099.64 690.233 1003.73 888 932.262 888C860.793 888 924.326 641.36 1030.01 473C1135.69 304.64 1191.15 239.488 1358.17 84" fill="none" opacity="1" stroke="#ddbcff" stroke-linecap="round" stroke-linejoin="miter" stroke-width="85" vectornator:layerName="Curve 1"/>
</g>
<g id="Original" vectornator:layerName="Original" visibility="hidden">
<path d="M226.537 84C226.537 84 274.536 232.55 266.803 473C259.069 713.45 159.253 888 97.441 888C35.6291 888 41.569 678.627 178.838 473C316.107 267.373 445.853 84 568.334 84C690.814 84 703.943 240.472 692.144 473C680.345 705.528 578.323 888 513.234 888C448.145 888 442.583 746.684 602.743 473C762.904 199.316 903.286 84 1021.24 84C1139.2 84 1139.76 255.767 1119.7 473C1099.64 690.233 1003.73 888 932.262 888C860.793 888 924.326 641.36 1030.01 473C1135.69 304.64 1191.15 239.488 1358.17 84" fill="none" opacity="1" stroke="#ac8bea" stroke-linecap="round" stroke-linejoin="miter" stroke-width="85" vectornator:layerName="Curve 1"/>
</g>
<g id="Layer-2" vectornator:layerName="Layer 2" visibility="hidden">
<path d="M405.623 403.992C405.623 403.992 534.469 239.883 585.958 191.213C637.447 142.543 662.415 135.311 684.608 135.311C706.802 135.311 763.243 148.4 783.837 255.234C804.431 362.067 804.626 517.332 786.558 617.299C768.49 717.265 746.512 807.726 715.779 855.561C685.046 903.396 646.576 937.037 629.326 926.962C612.077 916.887 588.857 888.049 629.715 763.467C670.572 638.885 739.232 524.956 764.015 482.759" fill="none" opacity="1" stroke="#1a1a29" stroke-linecap="round" stroke-linejoin="miter" stroke-width="29.7673" vectornator:layerName="Curve 1"/>
<path d="M833.868 381.363C833.868 381.363 931.804 249.774 985.697 205.292C1039.59 160.809 1098.79 114.157 1145.84 121C1192.89 127.843 1200.88 161.015 1209.44 217.474C1217.99 273.933 1209.92 378.982 1188.53 500.453C1167.14 621.925 1137.02 760.284 1097.67 838.984C1058.32 917.684 1017.26 953.696 996.731 945.997C976.201 938.298 971.485 902.789 990.192 834.089C1008.9 765.388 1069.64 614.656 1153.16 503.666" fill="none" opacity="1" stroke="#1a1a29" stroke-linecap="round" stroke-linejoin="miter" stroke-width="29.7673" vectornator:layerName="Curve 2"/>
<path d="M1234.03 397.077C1234.03 397.077 1354.36 233.495 1407.69 191.914" fill="none" opacity="1" stroke="#1a1a29" stroke-linecap="round" stroke-linejoin="round" stroke-width="29.7673" vectornator:layerName="Curve 3"/>
<path d="M358.256 135.311C358.256 135.311 373.667 356.31 372.623 425.165C372.094 460.135 373.593 521.956 367.187 581.733C360.979 639.658 346.969 695.606 339.781 726.924C325.176 790.564 291.692 877.525 275 899.434C258.308 921.342 237.784 950.052 214.608 945.997C191.431 941.942 169.06 903.839 178.287 846.709C187.515 789.579 202.777 737.146 235.555 674.464C268.334 611.783 324.38 514.727 338.756 494.599" fill="none" opacity="1" stroke="#303030" stroke-linecap="round" stroke-linejoin="miter" stroke-width="28.3205" vectornator:layerName="Curve 1"/>
</g>
<g id="Main-curve" vectornator:layerName="Main curve" visibility="hidden">
<path d="M226.537 84C226.537 84 274.536 232.55 266.803 473C259.069 713.45 159.253 888 97.441 888C35.6291 888 41.569 678.627 178.838 473C316.107 267.373 445.853 84 568.334 84C690.814 84 703.943 240.472 692.144 473C680.345 705.528 578.323 888 513.234 888C448.145 888 442.583 746.684 602.743 473C762.904 199.316 903.286 84 1021.24 84C1139.2 84 1139.76 255.767 1119.7 473C1099.64 690.233 1003.73 888 932.262 888C860.793 888 924.326 641.36 1030.01 473C1135.69 304.64 1191.15 239.488 1358.17 84" fill="none" opacity="1" stroke="#ddbcff" stroke-linecap="round" stroke-linejoin="miter" stroke-width="85" vectornator:layerName="Curve 1"/>
<g opacity="1" vectornator:layerName="Group 1">
<path d="M643.416 262.947C651.198 333.187 653.304 457.465 634.421 564.44" fill="none" opacity="1" stroke="#fefefe" stroke-linecap="round" stroke-linejoin="miter" stroke-width="10" vectornator:layerName="Curve 2"/>
<path d="M213.296 278.251C218.834 325.346 225.507 465.023 213.062 549.013" fill="none" opacity="1" stroke="#fefefe" stroke-linecap="round" stroke-linejoin="miter" stroke-width="10" vectornator:layerName="Curve 2"/>
<path d="M1082.07 307.779C1083.76 370.198 1074.94 464.527 1067.91 504.937" fill="none" opacity="1" stroke="#fefefe" stroke-linecap="round" stroke-linejoin="miter" stroke-width="10" vectornator:layerName="Curve 2"/>
<path d="M299.507 195.657C305.719 244.46 314.548 355.376 315.731 395.969" fill="none" opacity="1" stroke="#fefefe" stroke-linecap="round" stroke-linejoin="miter" stroke-width="10" vectornator:layerName="Curve 2"/>
<path d="M732.455 202.719C743.461 287.781 743.1 312.554 743.182 368.09" fill="none" opacity="1" stroke="#fefefe" stroke-linecap="round" stroke-linejoin="miter" stroke-width="10" vectornator:layerName="Curve 2"/>
<path d="M1168.45 182.846C1179.65 257.924 1176.7 300.818 1176.09 353.456" fill="none" opacity="1" stroke="#fefefe" stroke-linecap="round" stroke-linejoin="miter" stroke-width="10" vectornator:layerName="Curve 2"/>
</g>
</g>
<g id="Main-curve-copy" vectornator:layerName="Main curve copy">
<path d="M568.344 41.5C529.622 41.5 491.015 54.9614 452.031 80.1875C418.278 102.029 383.931 132.857 347.656 172.844C334.518 187.327 321.029 203.349 307.219 220.375C311.081 256.727 315.258 305.415 318 346.125C351.883 299.544 382.192 261.245 410.594 229.938C473.711 160.362 526.078 126.5 568.344 126.5C587.392 126.5 600.491 131.629 610.938 142.094C622.615 153.792 632.284 173.41 639.375 201.656C646.847 231.418 651.039 268.883 652.469 316.125C652.461 316.137 652.446 316.145 652.438 316.156C653.767 342.577 654.376 370.989 653.906 400C653.067 451.848 649.024 502.154 641.969 547.969C641.47 551.443 640.946 554.891 640.406 558.344C640.025 560.624 639.742 563.058 639.344 565.312C639.301 565.554 639.168 565.743 639.094 565.969C627.818 633.909 608.832 697.278 584.219 749.625C568.592 782.859 551.608 809.613 535.562 827.219C528.687 834.762 522.419 840.15 517.219 843.281C516.709 843.588 516.454 843.63 516 843.875C512.437 833.564 511.685 814.959 515.531 789.469C526.065 719.662 567.091 618.493 638.406 496.312C641.455 465.254 643.371 432.904 643.906 399.844C644.294 375.879 643.959 352.205 643.094 329.812C617.638 366.884 591.968 407.264 566.062 451.531C489.078 583.083 443.932 694.392 431.5 776.781C425.362 817.461 427.147 851.46 437.906 877.75C451.321 910.528 478.871 930.5 513.219 930.5C543.656 930.5 572.018 913.423 598.406 884.469C620.72 859.986 642.122 826.197 661.125 785.781C701.716 699.455 728.802 589.301 734.594 475.156C737.049 426.76 738.242 384.44 738.062 346.688C738.014 337.03 737.997 326.293 737.812 318.938C737.087 289.995 734.665 261.252 729.188 217.125C729.139 217.182 729.08 217.225 729.031 217.281C726.964 204.547 724.656 192.297 721.812 180.969C711.284 139.032 694.998 106.009 671.094 82.0625C644.271 55.1928 609.406 41.5 568.344 41.5ZM1021.25 41.5C929.986 41.5 835.66 97.045 738.031 207.156C744.384 256.96 746.998 287.436 747.781 318.688C747.856 321.663 747.825 326.939 747.875 329.875C785.118 280.215 821.361 238.917 856.281 207.406C917.355 152.296 972.547 126.5 1021.25 126.5C1037.58 126.5 1048.03 131.264 1056.62 141.531C1066.94 153.845 1075.13 174.764 1080.38 204.438C1085.31 232.376 1087.42 266.101 1087.03 307.469C1087.04 307.534 1087.06 307.59 1087.06 307.656C1088.57 363.194 1081.38 455.318 1073.16 503.844C1061.67 591.101 1037.84 676.747 1006.69 744.125C990.524 779.081 973.274 807.15 957 825.594C952.577 830.606 948.428 834.625 944.562 837.844C943.651 818.009 947.462 788.716 956 753.688C975.708 672.839 1016.39 575.834 1063.72 499.406C1070.86 455.734 1077.06 379.606 1077.19 325.406C1050.98 361.812 1024.5 401.821 994 450.406C940.806 535.148 895.587 642.569 873.406 733.562C862.095 779.966 857.297 820.039 860.219 850.844C862.09 870.576 867.094 887.436 876.656 901.25C889.495 919.797 909.364 930.5 932.25 930.5C964.343 930.5 993.68 912.491 1020.75 881.812C1043.07 856.521 1064.48 821.69 1083.84 779.812C1123.26 694.567 1152.01 585.403 1162.03 476.906C1166.79 425.408 1169.88 380.943 1171.28 341.625C1171.28 341.421 1171.31 341.331 1171.31 341.125C1171.47 331.466 1171.65 320.181 1171.69 317.719C1172.39 273.876 1171.03 242.096 1166.03 202.906C1165.41 198.464 1164.84 193.908 1164.09 189.656C1156.49 146.58 1143.05 112.336 1121.78 86.9375C1096.83 57.1362 1062.43 41.5 1021.25 41.5ZM1359.69 41.5312C1348.82 41.1483 1337.81 44.9096 1329.22 52.9062C1264.91 112.777 1217.11 159.579 1176.25 204C1181.06 242.625 1182.38 274.462 1181.69 317.875C1181.67 318.975 1181.57 324.48 1181.5 328.281C1233.38 262.936 1291.27 204.328 1387.12 115.094C1404.31 99.1004 1405.27 72.2113 1389.28 55.0312C1381.28 46.4412 1370.56 41.9142 1359.69 41.5312ZM230.25 41.6562C224.751 41.1731 219.053 41.7583 213.469 43.5625C191.134 50.7794 178.877 74.7274 186.094 97.0625C186.108 97.1055 187.039 100.202 187.469 101.688C188.744 106.1 190.18 111.402 191.75 117.594C196.317 135.61 200.937 156.877 205.25 181.219C210.611 211.471 214.879 243.7 218.156 277.375C218.174 277.476 218.238 277.553 218.25 277.656C218.771 282.088 219.256 287.873 219.75 293.375C220.804 305.104 221.804 318.358 222.625 333.5C222.629 333.563 222.621 333.624 222.625 333.688C223.741 354.323 224.583 377.099 224.938 399.719C225.861 458.576 223.706 511.244 218 549.75C217.995 549.784 217.974 549.81 217.969 549.844C208.59 626.14 189.639 696.33 163.75 753.031C148.948 785.449 132.728 811.464 117.344 828.5C113.054 833.25 109.175 836.724 105.531 839.625C101.397 822.364 101.064 795.656 105.562 763.5C116.778 683.317 153.995 587.391 212.875 498.594C214.737 469.154 215.504 435.966 214.938 399.875C214.656 381.946 214 364.197 213.219 347.219C192.868 376.328 171.299 407.763 143.5 449.406C76.8622 549.229 34.5093 658.045 21.4062 751.719C15.3365 795.111 15.9311 833.388 23.6562 862.844C28.2453 880.341 35.439 895.246 45.9062 906.938C59.281 921.877 77.3108 930.5 97.4375 930.5C127.212 930.5 154.881 913.769 180.438 885.469C202.18 861.392 222.886 828.122 241.062 788.312C280.37 702.222 305.508 591.702 309.281 474.375C310.507 436.251 310.3 399.567 309.062 364.062C306.475 320.729 301.471 260.448 296.938 218.5C294.539 200.707 291.92 183.237 288.938 166.406C284.258 139.997 279.224 116.707 274.156 96.7188C272.354 89.6092 270.659 83.3702 269.125 78.0625C268.571 76.1456 268.067 74.4731 267.625 73.0312C267.335 72.0859 267.115 71.3914 266.969 70.9375C261.556 54.1862 246.746 43.1058 230.25 41.6562Z" fill="#ddbcff" fill-rule="nonzero" opacity="1" stroke="none" vectornator:layerName="Curve 1"/>
</g>
<g id="Layer-1" vectornator:layerName="Layer 1"/>
</svg>
